PathFileType	4	(X/Y/Z)	\\Move.snu.ac.kr\motion\Animal\091204_091205_Bird\091205_bird\Project 2\Capture day 2\Session 1\pigeon_028.trc
DataRate	CameraRate	NumFrames	NumMarkers	Units	OrigDataRate	OrigDataStartFrame	OrigNumFrames
240.0	240.0	8	14	mm	240.0	1	6061
Frame#	Time	14MarkersBird:Head			14MarkersBird:C_back			14MarkersBird:Spine			14MarkersBird:L-shoulder			14MarkersBird:L-elbow			14MarkersBird:L-wrist			14MarkersBird:L-hand			14MarkersBird:R-shoulder			14MarkersBird:R-elbow			14MarkersBird:R-Wrist			14MarkersBird:R-hand			14MarkersBird:C_Tail			14MarkersBird:L-Tale			14MarkersBird:R-Tale			
		X1	Y1	Z1	X2	Y2	Z2	X3	Y3	Z3	X4	Y4	Z4	X5	Y5	Z5	X6	Y6	Z6	X7	Y7	Z7	X8	Y8	Z8	X9	Y9	Z9	X10	Y10	Z10	X11	Y11	Z11	X12	Y12	Z12	X13	Y13	Z13	X14	Y14	Z14	

4295	17.892	-951.99133	1186.85889	1595.79700	-953.81128	1153.84229	1660.13989	-952.08661	1118.80115	1700.79211	-978.98505	1163.20959	1626.57666	-1001.31488	1148.75134	1640.71838	-1011.10199	1153.18127	1596.49951	-1025.95349	1147.35742	1572.15552	-928.23895	1162.05237	1626.42053	-905.40533	1150.66052	1631.71716	-900.91650	1148.27722	1588.93787	-888.03412	1132.49915	1553.44043	-954.57397	1025.58276	1779.97253	-1037.98438	1062.35156	1728.90393	-859.62445	1062.42004	1736.43018	
4296	17.896	-951.87598	1186.58435	1593.40063	-953.32977	1155.20142	1660.14404	-949.44769	1115.95532	1697.97620	-978.34912	1165.46680	1627.01465	-999.83551	1147.07532	1639.65552	-1003.87122	1155.06848	1595.26880	-1012.87994	1146.70166	1568.74097	-927.50647	1163.55444	1626.43408	-905.99738	1148.77112	1631.20178	-908.39215	1149.28662	1588.30151	-903.33990	1130.44214	1552.11047	-952.57202	1019.26031	1772.37415	-1037.28589	1062.72693	1727.28467	-858.41443	1060.51367	1731.56848	
4297	17.900	-951.79443	1186.42212	1591.06860	-952.49054	1156.08618	1659.27271	-949.59906	1116.41968	1696.41687	-977.50275	1166.88452	1627.08545	-998.61096	1146.44470	1639.90906	-998.66608	1158.68091	1596.74890	-1002.22949	1149.53760	1569.64282	-927.10486	1164.48059	1625.77844	-906.03192	1147.91614	1631.71155	-913.13135	1153.42871	1590.11279	-915.36053	1134.64673	1553.44824	-950.77899	1013.93805	1763.85693	-1036.64502	1062.77356	1725.06152	-857.03131	1058.44861	1725.61511	
4298	17.904	-951.49750	1185.90356	1588.48096	-951.56989	1156.98523	1657.17175	-949.38312	1116.90466	1694.60950	-976.50250	1167.70007	1626.06396	-997.32043	1147.50757	1643.06189	-999.46216	1163.88391	1602.29919	-1000.67212	1155.07751	1575.66382	-926.81769	1165.04456	1624.36426	-905.12189	1149.13867	1634.54919	-911.27899	1159.37451	1594.87781	-915.97736	1142.71655	1558.45837	-949.90540	1011.77179	1757.77991	-1035.69617	1061.31897	1721.95496	-856.55524	1055.80786	1719.13269	
4299	17.908	-951.22583	1185.35291	1585.95337	-950.66284	1157.82666	1655.09814	-948.95166	1117.39734	1692.68213	-975.58655	1168.38989	1624.98291	-995.76013	1148.62366	1646.03125	-1000.16382	1168.59033	1607.42639	-1000.17969	1159.75610	1581.11792	-926.74188	1165.70752	1622.72302	-904.53375	1150.41516	1637.46497	-909.46912	1164.94446	1599.30420	-915.63080	1149.90320	1562.70862	-948.97345	1009.59290	1752.05029	-1034.75647	1059.97925	1718.98071	-856.17767	1053.40723	1713.07373	
4300	17.913	-950.96045	1184.71716	1583.51892	-949.73981	1158.52856	1652.80493	-948.30811	1117.84937	1690.61047	-974.77478	1168.75781	1623.62354	-993.66827	1150.23633	1649.18262	-1001.63977	1173.09949	1612.96948	-1002.89130	1163.70459	1587.23511	-926.93109	1166.47290	1620.79578	-904.45496	1152.20264	1640.87256	-906.58417	1170.46643	1604.06775	-911.68201	1156.78699	1567.04236	-948.17255	1007.98236	1747.19519	-1033.81396	1058.55286	1715.99109	-856.07349	1051.13574	1707.37354	
4301	17.917	-950.70374	1184.05066	1581.24719	-948.79547	1159.02490	1650.33142	-947.55194	1118.18958	1688.41650	-974.09863	1168.82202	1622.02319	-990.75354	1152.36206	1652.24048	-1003.23615	1177.47144	1619.03687	-1008.36316	1166.63074	1594.71021	-927.17169	1167.33496	1618.60046	-905.31012	1154.47009	1644.53821	-903.13843	1175.87122	1609.34692	-904.37903	1163.18347	1572.09399	-947.53442	1006.83801	1743.14001	-1032.92725	1057.13416	1712.99194	-856.19415	1048.94812	1701.98511	
4302	17.921	-950.44415	1183.47644	1579.18140	-947.85254	1159.28601	1647.80029	-946.78363	1118.34631	1686.12195	-973.55939	1168.69727	1620.27405	-986.79773	1154.76892	1654.79993	-1003.87469	1181.63806	1625.42676	-1014.70319	1168.48340	1604.25500	-927.16376	1168.28491	1616.14258	-907.45245	1156.95862	1647.91052	-900.24390	1180.98108	1615.08044	-895.18866	1168.82825	1578.63745	-947.03168	1005.86914	1739.56970	-1032.16663	1055.85608	1710.01465	-856.40619	1046.88745	1696.89612	
